<svg width="194" height="33" viewBox="0 0 194 33" fill="none" xmlns="http://www.w3.org/2000/svg">
<path d="M29.1425 21.9955V21.543H12.5331V21.9955H29.1425ZM1 30.7285H20.9491V28.4661C17.5649 29.5068 14.5814 30.276 3.22647 30.276V1.31674H1V30.7285ZM31.4135 30.7285H33.8626L20.9491 1.31674H18.5L31.4135 30.7285ZM20.5038 2.40271L10.2621 25.6606H12.7112C13.2456 21.905 13.0674 20.276 17.8766 9.41629L20.9937 2.40271H20.5038Z" fill="#7451F8"/>
<path d="M38.0498 30.7285H40.2763V24.3484C40.9887 24.2127 41.7457 24.2127 42.5027 24.2127H43.616C49.1376 24.3937 52.9226 27.3801 58.9786 31V28.5113C54.1694 26.2941 50.6071 24.8462 47.0892 24.2127C65.0346 23.3529 64.6783 1.31674 46.0651 1.31674H38.0498V30.7285ZM42.5027 23.7602C41.7457 23.7602 40.9887 23.8054 40.2763 23.8507V1.76923H46.0651C61.7394 1.76923 61.7394 23.7602 46.0651 23.7602H42.7254C42.6363 23.7602 42.5473 23.7602 42.5027 23.7602Z" fill="#7451F8"/>
<path d="M80.5471 1.45249C84.911 1.45249 88.5179 4.57466 90.299 6.70136V3.89593C87.8054 2.13122 84.5548 1 80.5471 1C59.5738 1 59.5738 31 80.5471 31V30.5475C62.869 30.5475 62.869 1.45249 80.5471 1.45249ZM80.5471 31C84.5548 31 87.8054 29.8688 90.299 28.1041V25.2986C88.5179 27.4253 84.911 30.5475 80.5471 30.5475V31ZM99.6947 30.7285H101.921V1.31674H99.6947V30.7285ZM100.318 10.7738V10.3213H80.5471V10.7738H100.318ZM78.7659 22.5837H80.9924V5.84163H78.7659V22.5837Z" fill="#7451F8"/>
<path d="M110.41 30.7285H112.636V1.31674H110.41V30.7285Z" fill="#7451F8"/>
<path d="M130.848 30.7285L143.316 1.31674H140.867C140.333 5.0724 137.75 13.2172 133.075 24.2579L130.893 29.4163L119.003 1.31674H116.554L129.023 30.7285H130.848Z" fill="#7451F8"/>
<path d="M147.329 30.7285H167.278V28.4661C163.894 29.5068 160.911 30.276 149.556 30.276V9.86878C157.794 9.91403 161.401 10.4118 164.607 11.6787V9.41629L149.556 9.37104V1.76923C160.911 1.76923 163.894 2.49321 167.278 3.57918V1.31674H147.329V30.7285Z" fill="#7451F8"/>
<path d="M181.69 1.45249C186.499 1.45249 190.017 5.02715 191.441 7.19909L191.397 4.16742C189.393 2.40271 186.142 1 181.69 1C175.277 1 171.76 3.98642 171.76 7.24434C171.76 16.0679 191.308 15.2081 191.308 24.3937C191.308 27.6063 188.324 30.5475 181.734 30.5475C176.925 30.5475 173.407 26.9729 171.982 24.8462V27.8326C174.031 29.5973 177.281 31 181.734 31C189.215 31 193 27.1538 193 23.1719C193 13.3529 173.274 13.8959 173.274 6.20362C173.274 3.66968 176.257 1.45249 181.69 1.45249Z" fill="#7451F8"/>
<path d="M80.5471 31C59.5738 31 59.5738 1 80.5471 1C84.5548 1 87.8054 2.13122 90.299 3.89593V6.70136C88.5179 4.57466 84.911 1.45249 80.5471 1.45249C62.869 1.45249 62.869 30.5475 80.5471 30.5475M80.5471 31V30.5475M80.5471 31C84.5548 31 87.8054 29.8688 90.299 28.1041V25.2986C88.5179 27.4253 84.911 30.5475 80.5471 30.5475M29.1425 21.9955V21.543H12.5331V21.9955H29.1425ZM1 30.7285H20.9491V28.4661C17.5649 29.5068 14.5814 30.276 3.22647 30.276V1.31674H1V30.7285ZM31.4135 30.7285H33.8626L20.9491 1.31674H18.5L31.4135 30.7285ZM20.5038 2.40271L10.2621 25.6606H12.7112C13.2456 21.905 13.0674 20.276 17.8766 9.41629L20.9937 2.40271H20.5038ZM38.0498 30.7285H40.2763V24.3484C40.9887 24.2127 41.7457 24.2127 42.5027 24.2127H43.616C49.1376 24.3937 52.9226 27.3801 58.9786 31V28.5113C54.1694 26.2941 50.6071 24.8462 47.0892 24.2127C65.0346 23.3529 64.6783 1.31674 46.0651 1.31674H38.0498V30.7285ZM42.5027 23.7602C41.7457 23.7602 40.9887 23.8054 40.2763 23.8507V1.76923H46.0651C61.7394 1.76923 61.7394 23.7602 46.0651 23.7602H42.7254C42.6363 23.7602 42.5473 23.7602 42.5027 23.7602ZM99.6947 30.7285H101.921V1.31674H99.6947V30.7285ZM100.318 10.7738V10.3213H80.5471V10.7738H100.318ZM78.7659 22.5837H80.9924V5.84163H78.7659V22.5837ZM110.41 30.7285H112.636V1.31674H110.41V30.7285ZM130.848 30.7285L143.316 1.31674H140.867C140.333 5.0724 137.75 13.2172 133.075 24.2579L130.893 29.4163L119.003 1.31674H116.554L129.023 30.7285H130.848ZM147.329 30.7285H167.278V28.4661C163.894 29.5068 160.911 30.276 149.556 30.276V9.86878C157.794 9.91403 161.401 10.4118 164.607 11.6787V9.41629L149.556 9.37104V1.76923C160.911 1.76923 163.894 2.49321 167.278 3.57918V1.31674H147.329V30.7285ZM181.69 1.45249C186.499 1.45249 190.017 5.02715 191.441 7.19909L191.397 4.16742C189.393 2.40271 186.142 1 181.69 1C175.277 1 171.76 3.98642 171.76 7.24434C171.76 16.0679 191.308 15.2081 191.308 24.3937C191.308 27.6063 188.324 30.5475 181.734 30.5475C176.925 30.5475 173.407 26.9729 171.982 24.8462V27.8326C174.031 29.5973 177.281 31 181.734 31C189.215 31 193 27.1538 193 23.1719C193 13.3529 173.274 13.8959 173.274 6.20362C173.274 3.66968 176.257 1.45249 181.69 1.45249Z" stroke="#7451F8" stroke-width="2"/>
</svg>
